<?xml version="1.0" encoding="utf-8"?>
<!-- Generator: Adobe Illustrator 21.1.0, SVG Export Plug-In . SVG Version: 6.00 Build 0)  -->
<svg version="1.1" id="Calque_1" xmlns="http://www.w3.org/2000/svg" xmlns:xlink="http://www.w3.org/1999/xlink" x="0px" y="0px"
	 viewBox="0 0 145.8 88.3" style="enable-background:new 0 0 145.8 88.3;" xml:space="preserve">
<style type="text/css">
	.st0{fill:#1a1c3a;}
</style>
<g>
	<path class="st0" d="M70.4,3.8c-15.2,0-27.5,12.3-27.5,27.4c0,13.7,9.8,25.1,23.1,27c2.2,0,3.6-1.5,3.6-4c0-2.1-2.3-2.8-2.3-2.8
		c-6.4-1.1-10.5-7-10.5-13.6c0-1,0.2-2.1,0.6-3.3c1.1,1.5,3.1,3.3,7,5c2.2,1,3.5,2.2,4.2,3.1c0.4,0.5,0.6,1,0.8,1.2
		c0.2,0.3,0.2,0.4,0.2,0.5v0.1l0,0l0.8,2.2l0.8-2.2c0-0.1,1.1-3,5.2-4.9c3.9-1.6,5.9-3.5,7-5c0.4,1.3,0.6,2.4,0.6,3.3
		c0,6.6-4.1,12.5-10.5,13.6c0,0-2.3,0.8-2.3,2.8c0,2.4,1.4,4,3.6,4c13.3-1.9,23.1-13.3,23.1-27C98,16.1,85.6,3.8,70.4,3.8z
		 M66.9,17.9c1.4-2.7,2.7-5.4,3.6-8.4c0.9,3,2.2,5.7,3.6,8.4s2.9,5.1,3.7,6.4c-0.1,0.2-0.2,0.4-0.4,0.6c-0.5,0.8-1.5,1.6-3.7,2.7
		c-1.6,0.8-2.6,1.7-3.2,2.6c-0.5-0.9-1.6-1.8-3.2-2.6c-2.3-1.1-3.2-2.1-3.8-2.8c-0.1-0.2-0.2-0.3-0.3-0.4C64,23,65.4,20.6,66.9,17.9
		z M82,33.8c-1,1.2-2.8,2.8-6.3,4.3c-2.9,1.3-4.5,3-5.3,4.3c-0.8-1.3-2.4-3-5.3-4.3c-3.8-1.6-5.6-3.3-6.5-4.6
		c-0.2-0.3-0.3-0.5-0.4-0.8c0.1-0.2,0.2-0.4,0.3-0.6c1-2.1,2.4-4.3,3.8-6.5c0.8,1.1,1.8,2.2,4.3,3.2c1.3,0.5,2.1,1.4,2.5,1.9
		c0.2,0.3,0.4,0.5,0.4,0.8c0,0.1,0.1,0.2,0.1,0.2l0,0l0,0l0.8,2.3l0.8-2.3l0,0c0-0.1,0.6-1.9,3.1-3c2.4-1.1,3.6-2.3,4.3-3.2
		c1.4,2.2,2.9,4.3,3.8,6.5c0.1,0.2,0.2,0.4,0.3,0.6C82.4,33,82.2,33.4,82,33.8z"/>
	<path class="st0" d="M15.8,84.5l-1.6-3.3H6.9l-1.6,3.3H3.7l6.2-12.9h1.4l6.2,12.9H15.8L15.8,84.5z M10.6,73.2l-3.1,6.5h6.2
		L10.6,73.2L10.6,73.2z M24.3,73v11.4h-1.5V73h-4.5v-1.3h10.6V73H24.3L24.3,73z M39,84.5V71.6h1.5v12.7H39V84.5z M54.7,84.5L45.9,74
		v10.5h-1.5V71.6h1.4l8.5,10.3V71.6h1.5v12.7h-1.2L54.7,84.5L54.7,84.5z M64.8,73v11.4h-1.5V73h-4.5v-1.3h10.6V73H64.8L64.8,73z
		 M82.1,83.2v1.3h-9.8V71.6h9.8v1.3h-8.2v4.4h7.3v1.3h-7.3v4.5L82.1,83.2L82.1,83.2z M94.9,78c-0.3,0.3-0.8,0.5-1.2,0.8
		s-1,0.3-1.5,0.4l4.1,5.2h-1.8l-3.9-5l0,0h-3.8v5h-1.5V71.6h5.8c0.9,0,1.6,0.1,2.3,0.3c0.6,0.2,1.2,0.5,1.6,1
		c0.3,0.3,0.5,0.6,0.8,1.1s0.3,0.9,0.3,1.4l0,0c0,0.5-0.1,1-0.3,1.4C95.5,77.3,95.2,77.7,94.9,78L94.9,78z M94.4,75.5
		c0-0.8-0.3-1.4-0.9-1.8C92.9,73.2,92.1,73,91,73h-4.2v5.2H91c0.5,0,1-0.1,1.4-0.2s0.8-0.3,1.1-0.5s0.5-0.5,0.8-0.9
		C94.3,76.4,94.4,75.9,94.4,75.5L94.4,75.5L94.4,75.5z M109.5,84.5L100.7,74v10.5h-1.5V71.6h1.4l8.5,10.3V71.6h1.5v12.7h-1.2
		L109.5,84.5L109.5,84.5z M124.4,83.2v1.3h-9.8V71.6h9.8v1.3h-8.2v4.4h7.3v1.3h-7.3v4.5L124.4,83.2L124.4,83.2z M132.5,73v11.4H131
		V73h-4.5v-1.3H137V73H132.5L132.5,73z"/>
</g>
<g>
	<path class="st0" d="M142.5,74.3c0.1-0.1,0.2-0.3,0.2-0.6c0-0.3-0.1-0.5-0.3-0.6c-0.2-0.2-0.5-0.2-0.8-0.2h-1.3v2.9h0.4v-1.1h0.7
		l0.8,1.1h0.5l-0.9-1.2C142.2,74.6,142.4,74.5,142.5,74.3z M140.8,74.3v-1h0.8c0.2,0,0.4,0,0.5,0.1c0.1,0.1,0.2,0.2,0.2,0.4
		c0,0.2-0.1,0.3-0.2,0.4c-0.1,0.1-0.3,0.1-0.5,0.1H140.8z"/>
</g>
<path class="st0" d="M141.4,77.2c-1.6,0-2.8-1.3-2.8-2.8s1.3-2.8,2.8-2.8s2.8,1.3,2.8,2.8S143,77.2,141.4,77.2z M141.4,71.8
	c-1.4,0-2.6,1.2-2.6,2.6c0,1.4,1.2,2.6,2.6,2.6c1.4,0,2.6-1.2,2.6-2.6C144,72.9,142.8,71.8,141.4,71.8z"/>
</svg>
