<?xml version="1.0" encoding="UTF-8"?>
<svg width="107px" height="91px" viewBox="0 0 107 91" version="1.1" xmlns="http://www.w3.org/2000/svg" xmlns:xlink="http://www.w3.org/1999/xlink">
    <!-- Generator: Sketch 51.3 (57544) - http://www.bohemiancoding.com/sketch -->
    <title>Group 69</title>
    <desc>Created with Sketch.</desc>
    <defs>
        <polygon id="path-1" points="0 0.7321 5.4899 0.7321 5.4899 16.9461 0 16.9461"></polygon>
        <polygon id="path-3" points="0 0.4426 5.4199 0.4426 5.4199 16.6566 0 16.6566"></polygon>
        <polygon id="path-5" points="0 90.2991 106.84 90.2991 106.84 0.0001 0 0.0001"></polygon>
    </defs>
    <g id="Page-1" stroke="none" stroke-width="1" fill="none" fill-rule="evenodd">
        <g id="Group-69">
            <path d="M23.2157,88.8809 C23.6617,88.9409 24.1117,88.9649 24.5617,88.9539 C26.2177,88.9539 27.7467,88.3479 27.7467,86.5409 C27.7467,84.8469 26.2917,84.1479 24.5417,84.1479 L23.2107,84.1479 L23.2157,88.8809 Z M23.2157,82.9319 L24.6707,82.9319 C26.3647,82.9319 27.3597,82.0489 27.3597,80.8519 C27.3597,79.3969 26.2547,78.8259 24.6337,78.8259 C24.1587,78.8139 23.6837,78.8509 23.2157,78.9369 L23.2157,82.9319 Z M21.6147,77.8499 C22.5797,77.6689 23.5597,77.5809 24.5417,77.5869 C26.1457,77.5869 27.1707,77.8619 27.9487,78.4889 C28.5887,78.9729 28.9757,79.7089 28.9757,80.6819 C28.9757,81.8789 28.1867,82.9279 26.8727,83.4079 L26.8727,83.4439 C28.0547,83.7389 29.4317,84.7139 29.4317,86.5569 C29.4447,87.4959 29.0637,88.3989 28.3797,89.0419 C27.5137,89.8309 26.1137,90.2029 24.0887,90.2029 C23.2617,90.2099 22.4357,90.1619 21.6147,90.0599 L21.6147,77.8499 Z" id="Fill-1" fill="#4C606A"></path>
            <path d="M32.5673,83.9679 C32.5673,86.6189 34.0043,88.9949 36.5273,88.9949 C39.0513,88.9949 40.5043,86.6569 40.5043,83.8389 C40.5043,81.3699 39.2153,78.7929 36.5453,78.7929 C33.8743,78.7929 32.5673,81.2379 32.5673,83.9679 M42.1993,83.7619 C42.1993,88.0329 39.6023,90.2989 36.4343,90.2989 C33.1563,90.2989 30.8553,87.7569 30.8553,84.0009 C30.8553,80.0579 33.3033,77.4819 36.6193,77.4819 C40.0063,77.4819 42.1993,80.0779 42.1993,83.7619" id="Fill-3" fill="#4C606A"></path>
            <path d="M45.8832,83.5011 L47.5222,83.5011 C49.2312,83.5011 50.3212,82.5621 50.3212,81.1441 C50.3212,79.5411 49.1612,78.8421 47.4672,78.8231 C46.9352,78.8101 46.4032,78.8591 45.8832,78.9731 L45.8832,83.5011 Z M44.2812,77.8501 C45.2952,77.6671 46.3242,77.5791 47.3552,77.5871 C49.0642,77.5871 50.1752,77.8991 50.9472,78.6001 C51.5742,79.1521 51.9232,80.0001 51.9232,80.9561 C51.9232,82.5961 50.8922,83.6831 49.5862,84.1241 L49.5862,84.1801 C50.5432,84.5111 51.1132,85.3961 51.4072,86.6851 C51.8142,88.4211 52.1082,89.6191 52.3712,90.0971 L50.7082,90.0971 C50.5062,89.7471 50.2302,88.6791 49.8792,87.1321 C49.5112,85.4231 48.8472,84.7731 47.3932,84.7181 L45.8832,84.7181 L45.8832,90.0971 L44.2812,90.0971 L44.2812,77.8501 Z" id="Fill-5" fill="#4C606A"></path>
            <path d="M55.7885,88.8311 C56.3255,88.9051 56.8675,88.9351 57.4105,88.9231 C60.8355,88.9231 62.6955,87.0081 62.6955,83.6561 C62.7135,80.7271 61.0565,78.8681 57.6685,78.8681 C57.0375,78.8581 56.4075,78.9141 55.7885,79.0331 L55.7885,88.8311 Z M54.1895,77.8501 C55.3175,77.6771 56.4565,77.5901 57.5975,77.5871 C59.8985,77.5871 61.5405,78.1201 62.6245,79.1341 C63.7085,80.1461 64.3735,81.5831 64.3735,83.5911 C64.3735,85.5981 63.7485,87.2701 62.5875,88.4161 C61.4275,89.5601 59.5125,90.2021 57.0995,90.2021 C56.1275,90.2071 55.1555,90.1581 54.1895,90.0551 L54.1895,77.8501 Z" id="Fill-7" fill="#4C606A"></path>
            <polygon id="Fill-9" fill="#4C606A" points="72.8842 84.2765 68.0582 84.2765 68.0582 88.7455 73.4362 88.7455 73.4362 90.0895 66.4552 90.0895 66.4552 77.6835 73.1582 77.6835 73.1582 79.0285 68.0582 79.0285 68.0582 82.9505 72.8842 82.9505"></polygon>
            <path d="M81.599,84.9405 L80.383,81.3665 C80.107,80.5565 79.923,79.8215 79.739,79.1015 L79.701,79.1015 C79.517,79.8375 79.316,80.5935 79.075,81.3485 L77.859,84.9405 L81.599,84.9405 Z M77.524,86.1915 L76.236,90.0965 L74.583,90.0965 L78.789,77.6835 L80.723,77.6835 L84.967,90.0965 L83.258,90.0965 L81.932,86.1915 L77.524,86.1915 Z" id="Fill-11" fill="#4C606A"></path>
            <path d="M87.8763,77.6837 L87.8763,85.0327 C87.8763,87.8127 89.1083,88.9917 90.7683,88.9917 C92.6073,88.9917 93.7903,87.7757 93.7903,85.0327 L93.7903,77.6837 L95.4093,77.6837 L95.4093,84.9217 C95.4093,88.7337 93.4023,90.2987 90.7153,90.2987 C88.1733,90.2987 86.2583,88.8437 86.2583,84.9957 L86.2583,77.6837 L87.8763,77.6837 Z" id="Fill-13" fill="#4C606A"></path>
            <path d="M104.9847,90.0968 L103.4077,87.3528 C102.7637,86.3008 102.3567,85.6208 101.9707,84.9038 L101.9217,84.9038 C101.5747,85.6208 101.2227,86.2838 100.5797,87.3698 L99.0877,90.0968 L97.2477,90.0968 L101.0407,83.8168 L97.3947,77.6838 L99.2547,77.6838 L100.8937,80.5938 C101.3547,81.4048 101.7037,82.0308 102.0357,82.6968 L102.0907,82.6968 C102.4407,81.9608 102.7547,81.3888 103.2137,80.5938 L104.9077,77.6838 L106.7477,77.6838 L102.9727,83.7298 L106.8387,90.1018 L104.9847,90.0968 Z" id="Fill-15" fill="#4C606A"></path>
            <g id="Group-19" transform="translate(0.000000, 27.299100)">
                <mask id="mask-2" fill="white">
                    <use xlink:href="#path-1"></use>
                </mask>
                <g id="Clip-18"></g>
                <polygon id="Fill-17" fill="#4C606A" mask="url(#mask-2)" points="-0.0001 16.9461 -0.0001 0.7321 2.4129 0.7321 2.4129 14.8281 5.4899 14.8281 5.4899 16.9461"></polygon>
            </g>
            <path d="M9.3148,37.5035 C8.6998,37.8675 8.2638,38.1415 8.2638,38.8245 L8.2638,42.1045 C8.2818,42.3625 8.5068,42.5585 8.7658,42.5395 C8.7738,42.5395 8.7818,42.5385 8.7888,42.5375 C9.0858,42.4915 9.3148,42.3105 9.3148,42.0115 L9.3148,37.5035 Z M11.5018,44.2455 L9.4518,44.2455 C9.3198,43.9715 9.3198,43.6525 9.3198,43.3565 L9.2738,43.3565 C8.8178,44.1085 8.4768,44.4075 7.5648,44.4075 C6.6088,44.4075 6.0848,43.8825 6.0848,42.9055 L6.0848,38.5285 C6.0848,35.8885 9.2508,37.2755 9.2508,33.9525 C9.2508,33.5655 9.3428,32.6535 8.8168,32.6535 C8.1808,32.6535 8.2908,33.7055 8.2908,34.1575 L8.2908,35.8655 L6.0808,35.8655 L6.0808,33.2455 C6.0808,31.9015 7.1318,31.0595 8.7908,31.0595 C10.4488,31.0595 11.5018,31.9015 11.5018,33.2455 L11.5018,44.2455 Z" id="Fill-20" fill="#4C606A"></path>
            <g id="Group-24" transform="translate(0.000000, 48.299100)">
                <mask id="mask-4" fill="white">
                    <use xlink:href="#path-3"></use>
                </mask>
                <g id="Clip-23"></g>
                <polygon id="Fill-22" fill="#4C606A" mask="url(#mask-4)" points="-0.0001 16.6566 -0.0001 0.4426 5.4199 0.4426 5.4199 2.5596 2.4129 2.5596 2.4129 6.7266 5.3089 6.7266 5.3089 8.8436 2.4129 8.8436 2.4129 16.6566"></polygon>
            </g>
            <path d="M8.6776,55.4591 L9.1286,55.4591 C9.9696,55.4591 10.1536,55.0031 10.1536,54.4081 L10.1536,51.4731 C10.1536,50.8591 9.7906,50.6761 9.2426,50.6761 L8.6736,50.6761 L8.6776,55.4591 Z M6.2636,64.9561 L6.2636,48.7431 L9.4516,48.7431 C11.3876,48.7431 12.5706,49.4261 12.5706,51.5211 L12.5706,53.8211 C12.5706,55.0281 12.2306,56.0311 10.1806,56.2601 L10.1806,56.3031 C11.2496,56.4351 12.3906,56.8051 12.4796,58.2851 C12.6186,60.4481 12.4796,62.7251 12.8666,64.9581 L10.4546,64.9581 C10.0446,63.0891 10.1576,60.6531 10.1576,58.7651 C10.1576,57.7841 9.7946,57.3951 8.6776,57.4411 L8.6776,64.9581 L6.2636,64.9561 Z" id="Fill-25" fill="#4C606A"></path>
            <polygon id="Fill-27" fill="#4C606A" points="13.9139 64.9557 13.9139 48.7417 19.2889 48.7417 19.2889 50.8587 16.3289 50.8587 16.3289 55.0257 19.1739 55.0257 19.1739 57.1427 16.3289 57.1427 16.3289 62.8367 19.3359 62.8367 19.3359 64.9557"></polygon>
            <path d="M24.1898,48.7428 L24.8728,53.4108 C25.4228,56.4478 25.8018,59.5118 26.0088,62.5898 L26.1018,62.5898 L26.1018,61.7228 C26.1258,60.1458 26.0328,58.5588 26.0328,56.9918 L26.0328,48.7428 L28.0158,48.7428 L28.0158,64.9558 L24.4398,64.9558 L23.3008,56.8468 C22.9138,54.8438 22.7748,53.0228 22.5698,51.1088 L22.4808,51.1088 C22.4808,51.8148 22.5258,52.5198 22.5488,53.2118 L22.5488,64.9618 L20.5638,64.9618 L20.5638,48.7428 L24.1898,48.7428 Z" id="Fill-29" fill="#4C606A"></path>
            <path d="M32.9301,54.6573 L32.9301,51.3613 C32.9301,50.5403 32.6791,50.3573 32.2011,50.3573 C31.7011,50.3573 31.4501,50.5403 31.4501,51.3613 L31.4501,62.3363 C31.4501,63.1563 31.7011,63.3393 32.2011,63.3393 C32.6791,63.3393 32.9301,63.1563 32.9301,62.3363 L32.9301,58.8273 L35.3451,58.8273 L35.3451,62.5433 C35.3451,64.6613 33.6801,65.2773 32.1801,65.2773 C30.6991,65.2773 29.0351,64.6613 29.0351,62.5433 L29.0351,51.1543 C29.0351,49.0353 30.6981,48.4223 32.1801,48.4223 C33.6801,48.4223 35.3451,49.0353 35.3451,51.1543 L35.3451,54.6573 L32.9301,54.6573 Z" id="Fill-31" fill="#4C606A"></path>
            <polygon id="Fill-33" fill="#4C606A" points="36.6893 64.9557 36.6893 48.7417 39.1013 48.7417 39.1013 54.9587 40.4453 54.9587 40.4453 48.7417 42.8583 48.7417 42.8583 64.9557 40.4453 64.9557 40.4453 57.0747 39.1013 57.0747 39.1013 64.9557"></polygon>
            <polygon id="Fill-35" fill="#4C606A" points="52.8729 48.7403 52.8729 50.8613 50.7769 50.8613 50.7769 64.9723 48.3599 64.9723 48.3599 50.8613 46.2409 50.8613 46.2409 48.7403"></polygon>
            <polygon id="Fill-37" fill="#4C606A" points="53.8539 64.9727 53.8539 48.7407 59.2349 48.7407 59.2349 50.8617 56.2709 50.8617 56.2709 55.0337 59.1209 55.0337 59.1209 57.1537 56.2709 57.1537 56.2709 62.8537 59.2809 62.8537 59.2809 64.9727"></polygon>
            <path d="M64.0219,54.6681 L64.0219,51.3621 C64.0219,50.5411 63.7719,50.3581 63.2929,50.3581 C62.7929,50.3581 62.5409,50.5411 62.5409,51.3621 L62.5409,62.3521 C62.5409,63.1721 62.7929,63.3531 63.2929,63.3531 C63.7719,63.3531 64.0219,63.1721 64.0219,62.3521 L64.0219,58.8401 L66.4349,58.8401 L66.4349,62.5551 C66.4349,64.6751 64.7709,65.2931 63.2659,65.2931 C61.7849,65.2931 60.1199,64.6751 60.1199,62.5551 L60.1199,51.1571 C60.1199,49.0361 61.7849,48.4201 63.2659,48.4201 C64.7709,48.4201 66.4349,49.0361 66.4349,51.1571 L66.4349,54.6681 L64.0219,54.6681 Z" id="Fill-39" fill="#4C606A"></path>
            <polygon id="Fill-41" fill="#4C606A" points="67.7845 64.9727 67.7845 48.7407 70.2005 48.7407 70.2005 54.9647 71.5465 54.9647 71.5465 48.7407 73.9625 48.7407 73.9625 64.9727 71.5465 64.9727 71.5465 57.0837 70.2005 57.0837 70.2005 64.9727"></polygon>
            <mask id="mask-6" fill="white">
                <use xlink:href="#path-5"></use>
            </mask>
            <g id="Clip-44"></g>
            <polygon id="Fill-43" fill="#E52720" mask="url(#mask-6)" points="19.93 71.1011 87.763 71.1011 87.763 70.8841 19.93 70.8841"></polygon>
            <polygon id="Fill-45" fill="#A62955" mask="url(#mask-6)" points="43.3119 37.481 44.1029 42.889 42.0169 42.068 40.4239 37.481"></polygon>
            <polygon id="Fill-46" fill="#9A1E29" mask="url(#mask-6)" points="41.8724 8.3072 42.4624 8.1612 37.9174 22.6722 36.9314 24.0572 36.9314 22.3422"></polygon>
            <polygon id="Fill-47" fill="#B62153" mask="url(#mask-6)" points="44.4335 6.3761 42.9595 0.0001 40.7255 2.0761 37.9465 2.8411 42.1385 9.1971"></polygon>
            <polygon id="Fill-48" fill="#9A1E29" mask="url(#mask-6)" points="35.2733 25.461 26.0793 25.397 25.1313 25.901"></polygon>
            <polygon id="Fill-49" fill="#E33F57" mask="url(#mask-6)" points="36.7782 25.3961 25.1312 25.9011 36.9452 33.6611"></polygon>
            <polygon id="Fill-50" fill="#D23C6B" mask="url(#mask-6)" points="49.6029 26.9723 37.9179 22.6733 42.9399 6.6333 44.4339 6.3763"></polygon>
            <polygon id="Fill-51" fill="#B62153" mask="url(#mask-6)" points="36.932 22.3419 28.515 15.7169 35.473 28.0279 36.932 28.1379"></polygon>
            <polygon id="Fill-52" fill="#EE6794" mask="url(#mask-6)" points="29.9286 28.2804 22.2026 15.5914 28.5156 15.7174 35.4726 28.0274"></polygon>
            <polygon id="Fill-53" fill="#9A1E29" mask="url(#mask-6)" points="22.203 15.5914 20.909 22.9144 25.048 20.2644"></polygon>
            <polygon id="Fill-54" fill="#B62153" mask="url(#mask-6)" points="47.7391 44.234 43.3121 44.234 36.9171 42.676 38.9841 40.872 42.4271 41.456"></polygon>
            <polygon id="Fill-55" fill="#DA336D" mask="url(#mask-6)" points="44.4335 6.3761 48.2065 4.1671 48.6215 1.0121 45.4205 1.6161 42.9395 0.0001"></polygon>
            <polygon id="Fill-56" fill="#9B2219" mask="url(#mask-6)" points="48.2064 4.1661 46.5784 12.1571 44.4344 6.3761"></polygon>
            <polygon id="Fill-57" fill="#9B2219" mask="url(#mask-6)" points="47.8168 6.0592 50.9438 7.9082 47.3948 8.0492"></polygon>
            <polygon id="Fill-58" fill="#811C0E" mask="url(#mask-6)" points="50.9769 7.9073 46.9759 10.2133 47.4429 7.9073"></polygon>
            <polygon id="Fill-59" fill="#891F1E" mask="url(#mask-6)" points="36.9476 27.6969 25.3296 28.2019 36.9466 37.4819"></polygon>
            <polygon id="Fill-60" fill="#B35E7E" mask="url(#mask-6)" points="44.4335 6.3761 49.9285 17.7731 53.2335 29.2961 48.2065 34.9211 49.7975 28.0271"></polygon>
            <polygon id="Fill-61" fill="#B62153" mask="url(#mask-6)" points="36.9164 23.1734 36.9754 27.6964 35.2864 27.6964 33.7254 24.9334"></polygon>
            <polygon id="Fill-62" fill="#E6406E" mask="url(#mask-6)" points="44.4335 37.481 36.9315 37.481 36.9315 23.173 37.9165 22.673 48.2065 34.92"></polygon>
            <polygon id="Fill-63" fill="#B62153" mask="url(#mask-6)" points="52.4769 28.0274 48.2059 34.9214 37.9169 22.6734"></polygon>
            <polygon id="Fill-64" fill="#9A1E29" mask="url(#mask-6)" points="36.932 27.6969 26.279 27.6969 25.329 28.2019"></polygon>
            <path d="M45.7616,7.0758 C45.7616,7.4138 46.0336,7.6878 46.3696,7.6878 C46.7026,7.6878 46.9716,7.4138 46.9716,7.0758 C46.9716,6.7378 46.7026,6.4638 46.3696,6.4638 C46.0336,6.4638 45.7616,6.7378 45.7616,7.0758" id="Fill-65" fill="#FFFFFE" mask="url(#mask-6)"></path>
            <polygon id="Fill-66" fill="#E33F57" mask="url(#mask-6)" points="38.0902 37.4615 39.2252 41.7635 40.4242 42.5525 43.3122 44.2375 41.1722 37.4615"></polygon>
            <polygon id="Fill-67" fill="#E33F57" mask="url(#mask-6)" points="43.5043 44.234 39.2253 41.763 37.5353 44.234"></polygon>
            <polygon id="Fill-68" fill="#9A1E29" mask="url(#mask-6)" points="43.3119 37.481 41.1729 37.481 41.6179 38.887"></polygon>
        </g>
    </g>
</svg>