<?xml version="1.0" encoding="utf-8"?>
<!-- Generator: Adobe Illustrator 15.0.0, SVG Export Plug-In . SVG Version: 6.00 Build 0)  -->
<!DOCTYPE svg PUBLIC "-//W3C//DTD SVG 1.1//EN" "http://www.w3.org/Graphics/SVG/1.1/DTD/svg11.dtd">
<svg version="1.1" id="Layer_1" xmlns="http://www.w3.org/2000/svg" xmlns:xlink="http://www.w3.org/1999/xlink" x="0px" y="0px"
	 width="290px" height="65px" viewBox="21.5 1 290 65" enable-background="new 21.5 1 290 65" xml:space="preserve">
	<path d="M92.162,31.879c0-8.852,7.57-15.805,16.182-15.805c8.613,0,16.11,6.987,16.11,15.839c0,8.853-7.492,15.905-16.106,15.905
		C99.735,47.818,92.162,40.731,92.162,31.879 M98.68,31.875c0,5.703,4.039,10.393,9.629,10.393c5.188,0,9.595-4.578,9.595-10.393
		c0-5.432-4.565-10.246-9.595-10.246C103.201,21.628,98.68,26.409,98.68,31.875"/>
	<path d="M250.424,44.456c-1.45,1.563-4.921,3.332-8.217,3.332c-6.064,0-11.277-4.16-11.277-10.1c0-5.705,5.307-9.712,11.485-9.712
		c3.339,0,6.446,1.384,7.966,2.956v-2.588c0-3.624-3.116-6.682-7.405-6.682c-3.333,0-6.158,0.954-8.594,2.439l-0.018-5.552
		c2.254-1.309,5.654-2.44,9.512-2.44c7.191,0,12.863,5.024,12.863,11.675l0.002,19.238l-6.338,0.026L250.424,44.456z
		 M243.331,33.048c-3.743,0-6.641,2.225-6.641,4.97c0,2.825,3.067,4.962,6.812,4.962c3.8,0,6.872-2.493,6.872-5.169
		C250.374,35.312,247.131,33.048,243.331,33.048"/>
	<path d="M271.102,41.981c2.139,0,4.688-0.486,4.688-3.284c0-1.766-1.059-2.368-2.732-3.086l-5.623-2.348
		c-3.21-1.542-5.827-3.522-5.827-7.857c0-4.932,5.004-9.308,10.762-9.308c3.391,0,6.381,0.859,8.637,2.583v6.571
		c-2.494-2.083-5.452-3.495-8.536-3.495c-2.913,0-4.187,1.539-4.187,3.14c0,1.725,0.883,2.327,3.384,3.517l5.396,2.343
		c3.562,1.662,5.673,3.728,5.673,7.587c0,5.405-5.827,9.458-11.585,9.458c-3.868,0-7.628-1.221-9.88-2.891v-6.702
		C263.997,40.758,267.827,41.981,271.102,41.981"/>
	<path d="M299.383,42.431c1.618,0,3.011-0.464,4.617-1.614v5.813c-1.365,0.832-3.627,1.397-6.067,1.397
		c-5.817,0-10.161-4.293-10.161-10.654l0.037-15.011l-5.021-0.097l-0.054-5.227l5.112-0.005l0.011-7.614l6.397-2.043l0.018,9.608
		l8.646,0.018l-0.013,5.281l-8.561,0.061l-0.018,14.369C294.326,40.275,296.177,42.431,299.383,42.431"/>
	<path d="M160.855,31.96c0,8.732-6.32,15.882-14.813,15.882c-5.648,0-8.761-2.705-10.784-5.298l0.024,16.937h-6.346l0.022-42.684
		l6.565-0.018l0.045,4.709c1.878-2.971,5.312-5.423,10.363-5.423C154.426,16.067,160.855,23.166,160.855,31.96 M135.174,31.875
		c0,6.178,4.795,10.313,9.306,10.313c4.619,0,9.987-4.039,9.987-10.212c0-6.241-4.865-10.379-9.57-10.379
		C139.96,21.597,135.174,25.634,135.174,31.875"/>
	<path d="M177.745,16.126c5.052,0,8.479,2.452,10.356,5.419l0.051-4.706l6.562,0.013l0.021,42.685h-6.338l0.021-16.938
		c-2.027,2.604-5.135,5.308-10.787,5.308c-8.488,0-14.81-7.159-14.81-15.893C162.82,23.221,169.245,16.126,177.745,16.126
		 M178.78,21.656c-4.712,0-9.575,4.138-9.575,10.375c0,6.182,5.364,10.221,9.984,10.221c4.511,0,9.312-4.145,9.312-10.322
		C188.502,25.694,183.71,21.656,178.78,21.656"/>
	<path d="M220.707,16.882l6.509,0.026l-0.051,30.337l-6.482-0.041l0.024-4.048c-1.65,2.811-5.285,4.647-8.812,4.647
		c-7.166,0-10.958-5.356-10.958-11.81l-0.025-19.099h6.385l0.025,17.732c0,4.516,2.664,7.495,6.483,7.495
		c3.741,0,6.952-3.262,6.952-7.779L220.707,16.882z"/>
<path fill="#18727D" d="M76.803,32.159l-2.558,2.519L49.731,59.142c-0.59,0.596-1.467,0.722-2.291-0.1l-4.769-4.701
	c-0.588-0.645-0.616-1.531,0.062-2.213l20-19.981L76.803,32.159z"/>
<path fill="#229A9A" d="M76.803,32.159l10.917,10.946c0.546,0.546,0.588,1.679-0.089,2.359l-4.758,4.738
	c-0.569,0.566-1.526,0.531-2.143-0.082L62.735,32.147L76.803,32.159z"/>
<path fill="#25924A" d="M40.36,37.218l2.486-2.465l24.031-24.035c0.589-0.588,1.595-0.674,2.29,0.1l4.777,4.698
	c0.611,0.617,0.613,1.526-0.066,2.204L54.359,37.253L40.36,37.218z"/>
<path fill="#5EB84E" d="M40.343,37.246L29.414,26.313c-0.547-0.546-0.586-1.68,0.089-2.355l4.75-4.748
	c0.567-0.574,1.527-0.534,2.142,0.078l17.963,17.966L40.343,37.246z"/>
</svg>
