<?xml version="1.0" encoding="utf-8"?>
<!-- Generator: Adobe Illustrator 25.1.0, SVG Export Plug-In . SVG Version: 6.00 Build 0)  -->
<svg version="1.2" baseProfile="tiny" id="Calque_1"
	 xmlns="http://www.w3.org/2000/svg" xmlns:xlink="http://www.w3.org/1999/xlink" x="0px" y="0px" viewBox="0 0 452.18 179.27"
	 overflow="visible" xml:space="preserve">
<path d="M398.16,56.21c-2.39-6.77-6.35-12.92-11.88-18.46c-4.39-4.19-9.73-7.44-16.03-9.72c-6.29-2.3-13.17-3.44-20.6-3.44
	c-18.71,0-33.88,7.07-45.5,21.17c-9.16-14.11-22.9-21.17-41.23-21.17l0.06,0.1c-0.84-0.03-1.65-0.1-2.5-0.1
	c-18.71,0-33.88,7.07-45.51,21.17c-9.16-14.11-22.89-21.17-41.22-21.17l0.05,0.08c-0.7-0.02-1.39-0.08-2.11-0.08h-0.08h-0.05
	c-18.57,0-33.66,6.98-45.26,20.89c-1.83-2.69-3.92-5.28-6.36-7.72c-1.08-1.03-2.22-2-3.41-2.91c-8.31-6.83-18.83-10.26-31.58-10.26
	h0.01h-0.13c-0.23,0-0.46,0.03-0.68,0.03c-0.29-0.01-0.56-0.03-0.84-0.03c-14.5,0-26.87,4.27-37.12,12.75V26.3H17.56v94.68h0.19h29
	h0.19V81.55c0-5.16,0.81-9.68,2.44-13.6c1.6-3.88,3.78-7.1,6.53-9.68c3.45-2.99,7.29-5.1,11.51-6.33c0.27-0.07,0.55-0.18,0.82-0.24
	c0.12-0.03,0.24-0.05,0.36-0.09c2.67-0.64,5.42-0.98,8.29-0.98c8.16,0.03,15.04,2.6,20.66,7.73c5.63,5.15,8.44,13.35,8.44,24.61
	v38.02h0.13h0.06h29h0.13h0.06V80.21c0.13-4.59,0.9-8.7,2.38-12.27c1.61-3.9,3.81-7.16,6.59-9.73c2.76-2.58,5.96-4.48,9.59-5.73
	c3.6-1.22,7.4-1.85,11.38-1.86c8.17,0.01,15.07,2.6,20.68,7.73c5.63,5.15,8.45,13.35,8.45,24.61v38.02h0.14h0.34h28.71h0.13h0.34
	V81.55c0-5.16,0.81-9.68,2.43-13.6c1.62-3.9,3.82-7.16,6.59-9.73c2.76-2.58,5.96-4.48,9.59-5.73c3.62-1.23,7.43-1.86,11.45-1.86
	c8.2,0,15.13,2.58,20.75,7.73c5.63,5.15,8.44,13.35,8.44,24.61v38.02h0.75h28.44h0.74V81.55c0-5.16,0.81-9.68,2.44-13.6
	c1.62-3.9,3.82-7.16,6.58-9.73c2.76-2.58,5.96-4.48,9.59-5.73c3.62-1.23,7.44-1.86,11.45-1.86c8.2,0,15.13,2.58,20.75,7.73
	c5.62,5.15,8.44,13.35,8.44,24.61v38.02h29.19v-42.3C401.73,70.48,400.54,62.99,398.16,56.21"/>
<path d="M435.42,24.85c0,9.15-7.41,16.56-16.57,16.56c-9.15,0-16.57-7.41-16.57-16.56c0-9.16,7.42-16.58,16.57-16.58
	C428.01,8.27,435.42,15.69,435.42,24.85"/>
<path d="M216.06,159.69c0,1.32-0.21,2.48-0.62,3.47c-0.41,1-1,1.83-1.76,2.5c-0.76,0.68-1.67,1.19-2.73,1.53
	c-1.06,0.34-2.24,0.51-3.54,0.51h-11.17v-29.44h10.84c1.21,0,2.34,0.17,3.39,0.51c1.05,0.35,1.95,0.85,2.71,1.51
	c0.75,0.66,1.35,1.47,1.77,2.42c0.43,0.95,0.64,2.03,0.64,3.24c0,1.58-0.41,2.95-1.22,4.14c-0.81,1.19-1.94,2.01-3.37,2.48
	c1.6,0.55,2.84,1.45,3.72,2.67C215.62,156.47,216.06,157.95,216.06,159.69 M213.38,145.96c0-1.02-0.17-1.88-0.52-2.6
	c-0.34-0.72-0.81-1.3-1.41-1.76c-0.59-0.45-1.29-0.79-2.09-1.01c-0.8-0.22-1.64-0.33-2.52-0.33h-8.35v11.42h8.35
	c0.88,0,1.72-0.11,2.52-0.33c0.8-0.22,1.5-0.56,2.09-1.01c0.59-0.46,1.06-1.04,1.41-1.76C213.2,147.85,213.38,146.98,213.38,145.96
	 M213.83,159.69c0-1.9-0.61-3.39-1.82-4.45c-1.22-1.06-2.83-1.59-4.84-1.59h-8.68v12.07h8.68c2.02,0,3.63-0.53,4.84-1.59
	C213.22,163.08,213.83,161.6,213.83,159.69"/>
<path d="M247.17,152.99c0,1.65-0.02,3.08-0.04,4.28c-0.03,1.2-0.13,2.25-0.31,3.16c-0.18,0.91-0.45,1.73-0.83,2.44
	c-0.37,0.72-0.89,1.41-1.55,2.07c-0.96,0.97-2.09,1.71-3.35,2.24c-1.27,0.53-2.61,0.79-4.01,0.79c-1.41,0-2.75-0.26-4.02-0.79
	c-1.26-0.52-2.39-1.27-3.35-2.24c-0.66-0.66-1.18-1.35-1.55-2.07c-0.37-0.71-0.65-1.53-0.83-2.44c-0.18-0.91-0.28-1.96-0.31-3.16
	c-0.03-1.2-0.04-2.63-0.04-4.28c0-1.65,0.02-3.08,0.04-4.28c0.03-1.2,0.13-2.25,0.31-3.16c0.18-0.91,0.46-1.73,0.83-2.44
	c0.37-0.72,0.89-1.41,1.55-2.07c0.96-0.96,2.09-1.71,3.35-2.24c1.27-0.52,2.61-0.78,4.02-0.78c1.4,0,2.74,0.26,4.01,0.78
	c1.26,0.53,2.39,1.27,3.35,2.24c0.66,0.66,1.18,1.35,1.55,2.07c0.37,0.71,0.64,1.53,0.83,2.44c0.18,0.91,0.28,1.96,0.31,3.16
	C247.15,149.91,247.17,151.34,247.17,152.99 M244.93,152.99c0-1.58-0.02-2.92-0.07-4.03c-0.04-1.11-0.14-2.08-0.29-2.9
	c-0.15-0.81-0.38-1.51-0.68-2.11c-0.3-0.6-0.72-1.15-1.24-1.68c-0.74-0.74-1.6-1.31-2.56-1.69c-0.97-0.38-1.98-0.58-3.02-0.58
	c-1.05,0-2.06,0.19-3.03,0.58c-0.96,0.38-1.82,0.95-2.56,1.69c-0.52,0.52-0.94,1.08-1.24,1.68c-0.3,0.59-0.53,1.3-0.68,2.11
	c-0.15,0.81-0.25,1.78-0.29,2.9c-0.04,1.12-0.06,2.46-0.06,4.03c0,1.57,0.02,2.92,0.06,4.03c0.04,1.12,0.13,2.09,0.29,2.9
	c0.15,0.81,0.38,1.52,0.68,2.11c0.3,0.6,0.72,1.15,1.24,1.68c0.74,0.74,1.6,1.31,2.56,1.69c0.97,0.38,1.98,0.58,3.03,0.58
	c1.04,0,2.05-0.19,3.02-0.58c0.96-0.38,1.82-0.95,2.56-1.69c0.52-0.53,0.94-1.09,1.24-1.68c0.3-0.59,0.53-1.29,0.68-2.11
	c0.15-0.81,0.25-1.78,0.29-2.9C244.91,155.91,244.93,154.57,244.93,152.99"/>
<path d="M269.58,154.15h-8.1v13.56h-2.24v-29.45h11.21c1.18,0,2.29,0.17,3.33,0.51c1.04,0.35,1.93,0.85,2.69,1.51
	c0.76,0.66,1.35,1.49,1.78,2.48c0.43,0.99,0.64,2.13,0.64,3.39c0,2.23-0.62,4.02-1.84,5.37c-1.23,1.35-2.87,2.21-4.94,2.56
	l7.11,13.61h-2.61L269.58,154.15z M276.65,146.21c0-2.04-0.6-3.54-1.82-4.51c-1.21-0.97-2.77-1.45-4.68-1.45h-8.68v11.92h8.68
	c1.9,0,3.46-0.48,4.68-1.45C276.05,149.75,276.65,148.25,276.65,146.21"/>
<path d="M310.65,152.58c0,0.99-0.01,2.06-0.02,3.21c-0.01,1.14-0.11,2.28-0.29,3.39c-0.18,1.11-0.47,2.18-0.85,3.2
	c-0.39,1.02-0.96,1.9-1.7,2.64c-1.79,1.8-4.24,2.69-7.36,2.69h-9.88v-29.44h9.88c3.12,0,5.57,0.89,7.36,2.69
	c0.74,0.74,1.31,1.58,1.7,2.52c0.38,0.94,0.67,1.91,0.85,2.92c0.18,1.01,0.28,2.04,0.29,3.1
	C310.64,150.56,310.65,151.59,310.65,152.58 M308.41,152.58c0-0.83-0.01-1.7-0.02-2.62c-0.02-0.92-0.08-1.83-0.21-2.73
	c-0.12-0.9-0.34-1.75-0.64-2.56c-0.3-0.81-0.74-1.52-1.32-2.13c-0.85-0.88-1.83-1.49-2.92-1.8c-1.09-0.32-2.23-0.48-3.41-0.48h-7.11
	v25.48h7.11c1.19,0,2.32-0.16,3.41-0.47c1.09-0.32,2.06-0.92,2.92-1.8c0.58-0.61,1.02-1.36,1.32-2.26c0.3-0.9,0.52-1.85,0.64-2.85
	c0.13-1.01,0.19-2.01,0.21-3.02C308.4,154.32,308.41,153.4,308.41,152.58"/>
<polygon points="322.72,138.27 340.58,138.27 340.58,140.25 324.95,140.25 324.95,151.87 338.27,151.87 338.27,153.86 
	324.95,153.86 324.95,165.73 340.58,165.73 340.58,167.72 322.72,167.72 "/>
<path d="M366.35,160.56h-13.73l-2.57,7.16h-2.39l10.83-29.45h1.99l10.83,29.45h-2.39L366.35,160.56z M353.32,158.57h12.32
	l-6.16-17.33L353.32,158.57z"/>
<path d="M400.38,158.16c0,1.43-0.25,2.75-0.75,3.95c-0.5,1.2-1.19,2.23-2.09,3.1c-0.9,0.87-1.96,1.55-3.18,2.03
	c-1.23,0.48-2.59,0.72-4.07,0.72c-1.49,0-2.85-0.24-4.07-0.72c-1.23-0.48-2.29-1.16-3.18-2.03c-0.9-0.87-1.6-1.9-2.09-3.1
	c-0.5-1.2-0.74-2.52-0.74-3.95v-19.89h2.23v19.6c0,1.21,0.19,2.32,0.56,3.33c0.37,1.01,0.91,1.86,1.6,2.56
	c0.69,0.7,1.51,1.25,2.48,1.63c0.96,0.39,2.04,0.58,3.23,0.58c1.18,0,2.26-0.19,3.22-0.58c0.96-0.38,1.79-0.93,2.48-1.63
	c0.69-0.7,1.22-1.56,1.59-2.56c0.37-1,0.55-2.11,0.55-3.33v-19.6h2.24V158.16z"/>
<polygon points="419.61,154.61 411.92,167.71 409.4,167.71 418.41,152.62 409.97,138.27 412.58,138.27 419.61,150.64 426.68,138.27 
	429.25,138.27 420.81,152.62 429.91,167.71 427.3,167.71 "/>
<g>
</g>
<g>
</g>
<g>
</g>
<g>
</g>
<g>
</g>
<g>
</g>
</svg>
