<?xml version="1.0" encoding="utf-8"?>
<!-- Generator: Adobe Illustrator 25.1.0, SVG Export Plug-In . SVG Version: 6.00 Build 0)  -->
<svg version="1.1" id="Calque_1" xmlns="http://www.w3.org/2000/svg" xmlns:xlink="http://www.w3.org/1999/xlink" x="0px" y="0px"
	 viewBox="0 0 417.9 159.4" style="enable-background:new 0 0 417.9 159.4;" xml:space="preserve">
<g>
	<path d="M380.6,47.9c-2.4-6.8-6.4-12.9-11.9-18.5c-4.4-4.2-9.7-7.4-16-9.7c-6.3-2.3-13.2-3.4-20.6-3.4c-18.7,0-33.9,7.1-45.5,21.2
		c-9.2-14.1-22.9-21.2-41.2-21.2l0.1,0.1c-0.8,0-1.6-0.1-2.5-0.1c-18.7,0-33.9,7.1-45.5,21.2c-9.2-14.1-22.9-21.2-41.2-21.2l0.1,0.1
		c-0.7,0-1.4-0.1-2.1-0.1H154H154c-18.6,0-33.7,7-45.3,20.9c-1.8-2.7-3.9-5.3-6.4-7.7c-1.1-1-2.2-2-3.4-2.9
		c-8.3-6.8-18.8-10.3-31.6-10.3h0h-0.1c-0.2,0-0.5,0-0.7,0c-0.3,0-0.6,0-0.8,0c-14.5,0-26.9,4.3-37.1,12.8V18H0v94.7h0.2h29h0.2
		V73.3c0-5.2,0.8-9.7,2.4-13.6c1.6-3.9,3.8-7.1,6.5-9.7c3.4-3,7.3-5.1,11.5-6.3c0.3-0.1,0.6-0.2,0.8-0.2c0.1,0,0.2,0,0.4-0.1
		c2.7-0.6,5.4-1,8.3-1c8.2,0,15,2.6,20.7,7.7c5.6,5.2,8.4,13.3,8.4,24.6v38h0.1h0.1h29h0.1h0.1V71.9c0.1-4.6,0.9-8.7,2.4-12.3
		c1.6-3.9,3.8-7.2,6.6-9.7c2.8-2.6,6-4.5,9.6-5.7c3.6-1.2,7.4-1.8,11.4-1.9c8.2,0,15.1,2.6,20.7,7.7c5.6,5.2,8.4,13.4,8.4,24.6v38
		h0.1h0.3h28.7h0.1h0.3V73.3c0-5.2,0.8-9.7,2.4-13.6c1.6-3.9,3.8-7.2,6.6-9.7c2.8-2.6,6-4.5,9.6-5.7c3.6-1.2,7.4-1.9,11.4-1.9
		c8.2,0,15.1,2.6,20.8,7.7c5.6,5.2,8.4,13.4,8.4,24.6v38h0.8H295h0.7V73.3c0-5.2,0.8-9.7,2.4-13.6c1.6-3.9,3.8-7.2,6.6-9.7
		c2.8-2.6,6-4.5,9.6-5.7c3.6-1.2,7.4-1.9,11.5-1.9c8.2,0,15.1,2.6,20.8,7.7s8.4,13.4,8.4,24.6v38h29.2V70.4
		C384.2,62.2,383,54.7,380.6,47.9"/>
	<path d="M417.9,16.6c0,9.1-7.4,16.6-16.6,16.6c-9.1,0-16.6-7.4-16.6-16.6c0-9.2,7.4-16.6,16.6-16.6C410.5,0,417.9,7.4,417.9,16.6"
		/>
	<path d="M198.5,151.4c0,1.3-0.2,2.5-0.6,3.5c-0.4,1-1,1.8-1.8,2.5c-0.8,0.7-1.7,1.2-2.7,1.5s-2.2,0.5-3.5,0.5h-11.2V130h10.8
		c1.2,0,2.3,0.2,3.4,0.5c1.1,0.4,1.9,0.9,2.7,1.5c0.8,0.7,1.4,1.5,1.8,2.4c0.4,0.9,0.6,2,0.6,3.2c0,1.6-0.4,2.9-1.2,4.1
		s-1.9,2-3.4,2.5c1.6,0.6,2.8,1.4,3.7,2.7C198.1,148.2,198.5,149.7,198.5,151.4 M195.8,137.7c0-1-0.2-1.9-0.5-2.6
		c-0.3-0.7-0.8-1.3-1.4-1.8c-0.6-0.4-1.3-0.8-2.1-1s-1.6-0.3-2.5-0.3h-8.4v11.4h8.4c0.9,0,1.7-0.1,2.5-0.3s1.5-0.6,2.1-1
		c0.6-0.5,1.1-1,1.4-1.8C195.6,139.6,195.8,138.7,195.8,137.7 M196.3,151.4c0-1.9-0.6-3.4-1.8-4.4c-1.2-1.1-2.8-1.6-4.8-1.6h-8.7
		v12.1h8.7c2,0,3.6-0.5,4.8-1.6C195.7,154.8,196.3,153.3,196.3,151.4"/>
	<path d="M229.6,144.7c0,1.6,0,3.1,0,4.3c0,1.2-0.1,2.2-0.3,3.2s-0.4,1.7-0.8,2.4c-0.4,0.7-0.9,1.4-1.6,2.1c-1,1-2.1,1.7-3.4,2.2
		c-1.3,0.5-2.6,0.8-4,0.8c-1.4,0-2.8-0.3-4-0.8c-1.3-0.5-2.4-1.3-3.4-2.2c-0.7-0.7-1.2-1.4-1.6-2.1c-0.4-0.7-0.6-1.5-0.8-2.4
		c-0.2-0.9-0.3-2-0.3-3.2s0-2.6,0-4.3s0-3.1,0-4.3c0-1.2,0.1-2.2,0.3-3.2s0.5-1.7,0.8-2.4c0.4-0.7,0.9-1.4,1.6-2.1
		c1-1,2.1-1.7,3.4-2.2c1.3-0.5,2.6-0.8,4-0.8c1.4,0,2.7,0.3,4,0.8c1.3,0.5,2.4,1.3,3.4,2.2c0.7,0.7,1.2,1.4,1.6,2.1
		c0.4,0.7,0.6,1.5,0.8,2.4c0.2,0.9,0.3,2,0.3,3.2C229.6,141.6,229.6,143.1,229.6,144.7 M227.4,144.7c0-1.6,0-2.9-0.1-4
		c0-1.1-0.1-2.1-0.3-2.9c-0.1-0.8-0.4-1.5-0.7-2.1c-0.3-0.6-0.7-1.1-1.2-1.7c-0.7-0.7-1.6-1.3-2.6-1.7c-1-0.4-2-0.6-3-0.6
		c-1.1,0-2.1,0.2-3,0.6c-1,0.4-1.8,0.9-2.6,1.7c-0.5,0.5-0.9,1.1-1.2,1.7c-0.3,0.6-0.5,1.3-0.7,2.1s-0.2,1.8-0.3,2.9s-0.1,2.5-0.1,4
		c0,1.6,0,2.9,0.1,4c0,1.1,0.1,2.1,0.3,2.9c0.1,0.8,0.4,1.5,0.7,2.1c0.3,0.6,0.7,1.1,1.2,1.7c0.7,0.7,1.6,1.3,2.6,1.7
		c1,0.4,2,0.6,3,0.6c1,0,2.1-0.2,3-0.6c1-0.4,1.8-0.9,2.6-1.7c0.5-0.5,0.9-1.1,1.2-1.7s0.5-1.3,0.7-2.1c0.1-0.8,0.2-1.8,0.3-2.9
		C227.4,147.6,227.4,146.3,227.4,144.7"/>
	<path d="M252,145.9h-8.1v13.6h-2.2V130h11.2c1.2,0,2.3,0.2,3.3,0.5c1,0.4,1.9,0.9,2.7,1.5c0.8,0.7,1.4,1.5,1.8,2.5
		c0.4,1,0.6,2.1,0.6,3.4c0,2.2-0.6,4-1.8,5.4c-1.2,1.4-2.9,2.2-4.9,2.6l7.1,13.6H259L252,145.9z M259.1,137.9c0-2-0.6-3.5-1.8-4.5
		c-1.2-1-2.8-1.4-4.7-1.4h-8.7v11.9h8.7c1.9,0,3.5-0.5,4.7-1.4C258.5,141.5,259.1,140,259.1,137.9"/>
	<path d="M293.1,144.3c0,1,0,2.1,0,3.2c0,1.1-0.1,2.3-0.3,3.4c-0.2,1.1-0.5,2.2-0.9,3.2c-0.4,1-1,1.9-1.7,2.6
		c-1.8,1.8-4.2,2.7-7.4,2.7H273V130h9.9c3.1,0,5.6,0.9,7.4,2.7c0.7,0.7,1.3,1.6,1.7,2.5c0.4,0.9,0.7,1.9,0.9,2.9s0.3,2,0.3,3.1
		C293.1,142.3,293.1,143.3,293.1,144.3 M290.9,144.3c0-0.8,0-1.7,0-2.6c0-0.9-0.1-1.8-0.2-2.7c-0.1-0.9-0.3-1.8-0.6-2.6
		c-0.3-0.8-0.7-1.5-1.3-2.1c-0.9-0.9-1.8-1.5-2.9-1.8c-1.1-0.3-2.2-0.5-3.4-0.5h-7.1v25.5h7.1c1.2,0,2.3-0.2,3.4-0.5
		c1.1-0.3,2.1-0.9,2.9-1.8c0.6-0.6,1-1.4,1.3-2.3c0.3-0.9,0.5-1.9,0.6-2.9c0.1-1,0.2-2,0.2-3C290.8,146.1,290.9,145.1,290.9,144.3"
		/>
	<polygon points="305.2,130 323,130 323,132 307.4,132 307.4,143.6 320.7,143.6 320.7,145.6 307.4,145.6 307.4,157.5 323,157.5 
		323,159.4 305.2,159.4 	"/>
	<path d="M348.8,152.3h-13.7l-2.6,7.2h-2.4l10.8-29.4h2l10.8,29.4h-2.4L348.8,152.3z M335.8,150.3h12.3l-6.2-17.3L335.8,150.3z"/>
	<path d="M382.8,149.9c0,1.4-0.2,2.8-0.8,3.9s-1.2,2.2-2.1,3.1c-0.9,0.9-2,1.6-3.2,2c-1.2,0.5-2.6,0.7-4.1,0.7
		c-1.5,0-2.9-0.2-4.1-0.7c-1.2-0.5-2.3-1.2-3.2-2c-0.9-0.9-1.6-1.9-2.1-3.1c-0.5-1.2-0.7-2.5-0.7-3.9V130h2.2v19.6
		c0,1.2,0.2,2.3,0.6,3.3s0.9,1.9,1.6,2.6s1.5,1.2,2.5,1.6c1,0.4,2,0.6,3.2,0.6c1.2,0,2.3-0.2,3.2-0.6c1-0.4,1.8-0.9,2.5-1.6
		c0.7-0.7,1.2-1.6,1.6-2.6s0.5-2.1,0.5-3.3V130h2.2L382.8,149.9L382.8,149.9z"/>
	<polygon points="402,146.3 394.4,159.4 391.8,159.4 400.9,144.3 392.4,130 395,130 402,142.4 409.1,130 411.7,130 403.2,144.3 
		412.4,159.4 409.7,159.4 	"/>
</g>
</svg>
